<mxfile host="app.diagrams.net" modified="2023-05-24T05:06:45.023Z" agent="Mozilla/5.0 (Windows NT 10.0; Win64; x64) AppleWebKit/537.36 (KHTML, like Gecko) Chrome/113.0.0.0 Safari/537.36" etag="Cu5P0_W_yHeD9uNmzwaA" version="21.3.3" type="github">
  <diagram name="Halaman-1" id="sTHHMOdEoIqa_FH8MUD4">
    <mxGraphModel dx="819" dy="434" grid="1" gridSize="10" guides="1" tooltips="1" connect="1" arrows="1" fold="1" page="1" pageScale="1" pageWidth="827" pageHeight="1169" math="0" shadow="0">
      <root>
        <mxCell id="0" />
        <mxCell id="1" parent="0" />
        <mxCell id="4sBYsDWJmzMCkhPssWZ8-4" value="Keputusan Pembelian" style="rounded=1;whiteSpace=wrap;html=1;" vertex="1" parent="1">
          <mxGeometry x="400" y="190" width="220" height="60" as="geometry" />
        </mxCell>
        <mxCell id="4sBYsDWJmzMCkhPssWZ8-5" value="" style="group" vertex="1" connectable="0" parent="1">
          <mxGeometry x="100" y="110" width="220" height="220" as="geometry" />
        </mxCell>
        <mxCell id="4sBYsDWJmzMCkhPssWZ8-1" value="Electronic Word of Mouth" style="rounded=1;whiteSpace=wrap;html=1;" vertex="1" parent="4sBYsDWJmzMCkhPssWZ8-5">
          <mxGeometry width="220" height="60" as="geometry" />
        </mxCell>
        <mxCell id="4sBYsDWJmzMCkhPssWZ8-2" value="Content Marketing" style="rounded=1;whiteSpace=wrap;html=1;" vertex="1" parent="4sBYsDWJmzMCkhPssWZ8-5">
          <mxGeometry y="80" width="220" height="60" as="geometry" />
        </mxCell>
        <mxCell id="4sBYsDWJmzMCkhPssWZ8-3" value="Brand Awareness" style="rounded=1;whiteSpace=wrap;html=1;" vertex="1" parent="4sBYsDWJmzMCkhPssWZ8-5">
          <mxGeometry y="160" width="220" height="60" as="geometry" />
        </mxCell>
        <mxCell id="4sBYsDWJmzMCkhPssWZ8-6" value="" style="endArrow=classic;html=1;rounded=0;exitX=1;exitY=0.461;exitDx=0;exitDy=0;exitPerimeter=0;" edge="1" parent="1" source="4sBYsDWJmzMCkhPssWZ8-1">
          <mxGeometry width="50" height="50" relative="1" as="geometry">
            <mxPoint x="330" y="140" as="sourcePoint" />
            <mxPoint x="400" y="200" as="targetPoint" />
          </mxGeometry>
        </mxCell>
        <mxCell id="4sBYsDWJmzMCkhPssWZ8-7" value="" style="endArrow=classic;html=1;rounded=0;exitX=1;exitY=0.5;exitDx=0;exitDy=0;" edge="1" parent="1" source="4sBYsDWJmzMCkhPssWZ8-2">
          <mxGeometry width="50" height="50" relative="1" as="geometry">
            <mxPoint x="380" y="270" as="sourcePoint" />
            <mxPoint x="400" y="220" as="targetPoint" />
          </mxGeometry>
        </mxCell>
        <mxCell id="4sBYsDWJmzMCkhPssWZ8-8" value="" style="endArrow=classic;html=1;rounded=0;exitX=1;exitY=0.5;exitDx=0;exitDy=0;" edge="1" parent="1" source="4sBYsDWJmzMCkhPssWZ8-3">
          <mxGeometry width="50" height="50" relative="1" as="geometry">
            <mxPoint x="340" y="310" as="sourcePoint" />
            <mxPoint x="400" y="240" as="targetPoint" />
          </mxGeometry>
        </mxCell>
        <mxCell id="4sBYsDWJmzMCkhPssWZ8-9" value="" style="rounded=1;whiteSpace=wrap;html=1;fillColor=none;dashed=1;" vertex="1" parent="1">
          <mxGeometry x="80" y="90" width="260" height="260" as="geometry" />
        </mxCell>
        <mxCell id="4sBYsDWJmzMCkhPssWZ8-10" value="" style="endArrow=none;dashed=1;html=1;dashPattern=1 3;strokeWidth=2;rounded=0;entryX=0.5;entryY=1;entryDx=0;entryDy=0;exitX=0.999;exitY=0.884;exitDx=0;exitDy=0;exitPerimeter=0;" edge="1" parent="1" source="4sBYsDWJmzMCkhPssWZ8-9" target="4sBYsDWJmzMCkhPssWZ8-4">
          <mxGeometry width="50" height="50" relative="1" as="geometry">
            <mxPoint x="360" y="190" as="sourcePoint" />
            <mxPoint x="410" y="140" as="targetPoint" />
            <Array as="points">
              <mxPoint x="510" y="320" />
            </Array>
          </mxGeometry>
        </mxCell>
      </root>
    </mxGraphModel>
  </diagram>
</mxfile>
